<?xml version="1.0" encoding="UTF-8" standalone="no"?><!DOCTYPE svg PUBLIC "-//W3C//DTD SVG 1.1//EN" "http://www.w3.org/Graphics/SVG/1.1/DTD/svg11.dtd"><svg width="100%" height="100%" viewBox="0 0 576 512" version="1.1" xmlns="http://www.w3.org/2000/svg" xmlns:xlink="http://www.w3.org/1999/xlink" xml:space="preserve" xmlns:serif="http://www.serif.com/" style="fill-rule:evenodd;clip-rule:evenodd;stroke-linejoin:round;stroke-miterlimit:2;"><path d="M64,32c-35.3,0 -64,28.7 -64,64l0,320c0,35.3 28.7,64 64,64l448,0c35.3,0 64,-28.7 64,-64l0,-320c0,-35.3 -28.7,-64 -64,-64l-448,0Zm80,256l64,0c44.2,0 80,35.8 80,80c0,8.8 -7.2,16 -16,16l-192,0c-8.8,0 -16,-7.2 -16,-16c0,-44.2 35.8,-80 80,-80Zm-24,-96c0,-30.721 25.279,-56 56,-56c30.721,0 56,25.279 56,56c0,30.721 -25.279,56 -56,56c-30.721,0 -56,-25.279 -56,-56Zm240,-48l112,0c13.3,0 24,10.7 24,24c0,13.3 -10.7,24 -24,24l-112,0c-13.3,0 -24,-10.7 -24,-24c0,-13.3 10.7,-24 24,-24Zm0,96l112,0c13.3,0 24,10.7 24,24c0,13.3 -10.7,24 -24,24l-112,0c-13.3,0 -24,-10.7 -24,-24c0,-13.3 10.7,-24 24,-24Z" style="fill:#efefef;fill-rule:nonzero;"/></svg>