<?xml version="1.0" encoding="UTF-8" standalone="no"?><!DOCTYPE svg PUBLIC "-//W3C//DTD SVG 1.1//EN" "http://www.w3.org/Graphics/SVG/1.1/DTD/svg11.dtd"><svg width="100%" height="100%" viewBox="0 0 512 512" version="1.1" xmlns="http://www.w3.org/2000/svg" xmlns:xlink="http://www.w3.org/1999/xlink" xml:space="preserve" xmlns:serif="http://www.serif.com/" style="fill-rule:evenodd;clip-rule:evenodd;stroke-linejoin:round;stroke-miterlimit:2;"><path d="M512,256c0,-140.437 -115.563,-256 -256,-256c-140.437,-0 -256,115.563 -256,256c0,140.437 115.563,256 256,256c140.437,0 256,-115.563 256,-256Zm-387.3,-11.3l104,-104c4.6,-4.6 11.5,-5.9 17.4,-3.5c5.9,2.4 9.9,8.3 9.9,14.8l0,56l96,0c17.7,0 32,14.3 32,32l0,32c0,17.7 -14.3,32 -32,32l-96,0l0,56c0,6.5 -3.9,12.3 -9.9,14.8c-6,2.5 -12.9,1.1 -17.4,-3.5l-104,-104c-6.2,-6.2 -6.2,-16.4 0,-22.6Z" style="fill:#efefef;fill-rule:nonzero;"/></svg>