<?xml version="1.0" encoding="UTF-8" standalone="no"?><!DOCTYPE svg PUBLIC "-//W3C//DTD SVG 1.1//EN" "http://www.w3.org/Graphics/SVG/1.1/DTD/svg11.dtd"><svg width="100%" height="100%" viewBox="0 0 512 512" version="1.1" xmlns="http://www.w3.org/2000/svg" xmlns:xlink="http://www.w3.org/1999/xlink" xml:space="preserve" xmlns:serif="http://www.serif.com/" style="fill-rule:evenodd;clip-rule:evenodd;stroke-linejoin:round;stroke-miterlimit:2;"><path d="M48,64c-26.5,0 -48,21.5 -48,48c0,15.1 7.1,29.3 19.2,38.4l208,156c17.1,12.8 40.5,12.8 57.6,0l208,-156c12.1,-9.1 19.2,-23.3 19.2,-38.4c0,-26.5 -21.5,-48 -48,-48l-416,0Zm-48,132l0,188c0,35.3 28.7,64 64,64l384,0c35.3,0 64,-28.7 64,-64l0,-188l-198.4,148.8c-34.1,25.6 -81.1,25.6 -115.2,0l-198.4,-148.8Z" style="fill:#efefef;fill-rule:nonzero;"/></svg>